<svg width="80" height="80" viewBox="0 0 80 80" fill="none" xmlns="http://www.w3.org/2000/svg">
<path d="M77.6555 11.9544C77.6912 9.81913 76.918 7.85023 75.4784 6.41063C74.6972 5.62963 73.4309 5.62963 72.6499 6.41073C71.8689 7.19183 71.8688 8.45813 72.6499 9.23913C73.3162 9.90533 73.6735 10.8458 73.6562 11.8875C73.6396 12.8813 73.2634 13.8409 72.6499 14.4544C71.3774 15.7269 58.6929 26.863 48.7864 35.5278L46.3584 33.1C53.5904 24.8253 62.5652 14.5936 66.0756 10.7086L66.8742 11.5073C67.6553 12.2884 68.9217 12.2885 69.7026 11.5075C70.4838 10.7265 70.4839 9.46023 69.7029 8.67913L67.4348 6.41083C67.0598 6.03573 66.551 5.82493 66.0206 5.82493H66.0205C65.49 5.82493 64.9814 6.03563 64.6063 6.41063C63.3892 7.62763 55.9445 16.0831 49.2271 23.7487C47.4206 21.0144 45.0077 18.6622 42.1376 16.8566C37.9427 14.2175 33.0521 12.8794 27.6014 12.8794C26.4023 12.8794 25.216 12.955 24.0757 13.1043C22.9804 13.2477 22.2088 14.2517 22.3521 15.347C22.4955 16.4422 23.4994 17.2138 24.5947 17.0705C25.5636 16.9437 26.5752 16.8794 27.6013 16.8794C35.9007 16.8794 42.8625 20.6002 46.4727 26.894C43.1039 30.7435 40.2095 34.0591 38.8137 35.6589C36.3219 35.9984 34.4626 37.0181 33.1516 38.7667C31.9327 40.3924 31.3984 42.334 30.8328 44.3896C30.1508 46.8682 29.4456 49.4312 27.4345 51.4422C26.8624 52.0142 26.6913 52.8744 27.0009 53.6218C27.3105 54.3692 28.0398 54.8565 28.8487 54.8565C34.2312 54.8565 38.4973 53.7092 41.5286 51.4466C44.2603 49.4075 45.8886 46.5125 46.2736 43.0361C51.4269 38.5354 73.6301 19.131 75.4783 17.2828C76.8279 15.9333 77.6215 13.9911 77.6555 11.9544ZM45.7682 38.1666C45.1672 38.6917 44.5846 39.2007 44.0244 39.6898L42.1983 37.8638C42.687 37.3037 43.1959 36.7206 43.7209 36.1194L45.7682 38.1666ZM39.1359 48.2411C37.5627 49.4155 35.4691 50.1981 32.885 50.5814C33.7643 48.8133 34.2576 47.0206 34.6895 45.4507C35.6165 42.0819 36.1811 40.3911 38.4653 39.7877L42.1582 43.4805C41.7516 45.4463 40.7399 47.0438 39.1359 48.2411Z" fill="#D1E1EA"/>
<path d="M17.8311 18.9959C18.1224 18.9959 18.4183 18.9319 18.6982 18.797C18.8777 18.7104 19.0621 18.6253 19.2461 18.5442C20.2566 18.0981 20.7142 16.9173 20.2681 15.9068C19.822 14.8964 18.6413 14.4388 17.6307 14.8848C17.406 14.984 17.1807 15.088 16.961 15.1939C15.9661 15.6736 15.5484 16.8691 16.028 17.864C16.3728 18.579 17.0871 18.9959 17.8311 18.9959Z" fill="#D1E1EA"/>
<path d="M32.2835 57.0789C31.18 57.0681 30.2736 57.9518 30.2611 59.0562C30.1748 66.7449 29.0141 70.175 22.3647 70.175C18.6371 70.175 14.7251 67.4481 11.6319 62.6937C8.22117 57.451 6.34277 50.6443 6.34277 43.5274C6.34277 34.2881 9.13277 26.6005 14.1989 21.8809C15.0071 21.128 15.0519 19.8624 14.299 19.0542C13.5461 18.246 12.2805 18.2012 11.4723 18.9541C8.48817 21.7342 6.17927 25.3464 4.60957 29.6904C3.10537 33.853 2.34277 38.5085 2.34277 43.5274C2.34277 51.4095 4.45107 58.991 8.27907 64.875C12.1242 70.7854 17.2583 74.1751 22.3647 74.1751C27.2488 74.1751 30.6529 72.4564 32.4822 69.0669C34.0528 66.1565 34.2238 62.3968 34.2608 59.1012C34.2732 57.9967 33.388 57.0912 32.2835 57.0789Z" fill="#D1E1EA"/>
<path d="M42.1252 27.4597C42.1252 23.7857 39.1361 20.7966 35.4621 20.7966C31.788 20.7966 28.7988 23.7857 28.7988 27.4597C28.7988 31.1338 31.788 34.123 35.4621 34.123C39.1361 34.1229 42.1252 31.1338 42.1252 27.4597ZM32.7988 27.4597C32.7988 25.9912 33.9935 24.7966 35.4621 24.7966C36.9306 24.7966 38.1252 25.9912 38.1252 27.4597C38.1252 28.9283 36.9306 30.123 35.4621 30.123C33.9935 30.1229 32.7988 28.9282 32.7988 27.4597Z" fill="#D1E1EA"/>
<path d="M19.5821 36.5177C23.2562 36.5177 26.2453 33.5286 26.2453 29.8546C26.2453 26.1805 23.2562 23.1914 19.5821 23.1914C15.908 23.1914 12.9189 26.1805 12.9189 29.8546C12.9189 33.5286 15.908 36.5177 19.5821 36.5177ZM19.5821 27.1914C21.0506 27.1914 22.2453 28.3861 22.2453 29.8546C22.2453 31.3231 21.0506 32.5177 19.5821 32.5177C18.1136 32.5177 16.9189 31.3231 16.9189 29.8546C16.9189 28.3861 18.1137 27.1914 19.5821 27.1914Z" fill="#D1E1EA"/>
<path d="M21.1409 45.1638C21.1409 41.4897 18.1518 38.5005 14.4777 38.5005C10.8036 38.5005 7.81445 41.4897 7.81445 45.1638C7.81445 48.8378 10.8036 51.8269 14.4777 51.8269C18.1518 51.8269 21.1409 48.8378 21.1409 45.1638ZM14.4777 47.827C13.0092 47.827 11.8145 46.6323 11.8145 45.1638C11.8145 43.6952 13.0092 42.5005 14.4777 42.5005C15.9462 42.5005 17.1409 43.6952 17.1409 45.1638C17.1409 46.6322 15.9462 47.827 14.4777 47.827Z" fill="#D1E1EA"/>
<path d="M21.4785 67.4175C25.1526 67.4175 28.1418 64.4284 28.1418 60.7544C28.1418 57.0804 25.1526 54.0913 21.4785 54.0913C17.8045 54.0913 14.8154 57.0804 14.8154 60.7544C14.8154 64.4284 17.8045 67.4175 21.4785 67.4175ZM21.4785 58.0913C22.9471 58.0913 24.1418 59.2859 24.1418 60.7544C24.1418 62.2229 22.9471 63.4175 21.4785 63.4175C20.0101 63.4175 18.8154 62.2229 18.8154 60.7544C18.8154 59.2859 20.0101 58.0913 21.4785 58.0913Z" fill="#D1E1EA"/>
</svg>
