<svg width="80" height="80" viewBox="0 0 80 80" fill="none" xmlns="http://www.w3.org/2000/svg">
<path d="M49.2858 51.4286C52.8362 51.4286 55.7144 54.3068 55.7144 57.8572V62.1485L55.6918 62.4584C54.804 68.5333 49.3473 71.4544 40.1909 71.4544C31.0675 71.4544 25.5238 68.5667 24.3271 62.5617L24.2858 62.1429V57.8572C24.2858 54.3068 27.164 51.4286 30.7144 51.4286H49.2858ZM49.2858 55.7143H30.7144C29.5309 55.7143 28.5715 56.6737 28.5715 57.8572V61.9154C29.3709 65.3451 33.0019 67.1687 40.1909 67.1687C47.3797 67.1687 50.8476 65.3649 51.4286 61.9805V57.8572C51.4286 56.6737 50.4692 55.7143 49.2858 55.7143ZM52.1245 34.2826L67.8572 34.2857C71.4076 34.2857 74.2858 37.1639 74.2858 40.7143V45.0057L74.2633 45.3156C73.3754 51.3904 67.9187 54.3116 58.7623 54.3116L57.8627 54.3019C57.0198 52.2631 55.4718 50.5938 53.5239 49.5928C54.9948 49.8812 56.7374 50.0258 58.7623 50.0258C65.9511 50.0258 69.419 48.222 70.0001 44.8376V40.7143C70.0001 39.5308 69.0407 38.5714 67.8572 38.5714H52.8572C52.8572 37.0676 52.599 35.624 52.1245 34.2826ZM12.1429 34.2857L27.8756 34.2826C27.4802 35.4004 27.235 36.5892 27.1642 37.8247L27.1429 38.5714H12.1429C10.9595 38.5714 10.0001 39.5308 10.0001 40.7143V44.7725C10.7995 48.2023 14.4304 50.0258 21.6195 50.0258C23.3968 50.0258 24.9467 49.9156 26.2818 49.6984C24.4225 50.7081 22.9485 52.3355 22.1325 54.3045L21.6195 54.3116C12.4961 54.3116 6.95236 51.4238 5.75568 45.4188L5.71436 45V40.7143C5.71436 37.1639 8.59252 34.2857 12.1429 34.2857ZM40.0001 28.5714C45.5229 28.5714 50.0001 33.0486 50.0001 38.5714C50.0001 44.0943 45.5229 48.5714 40.0001 48.5714C34.4772 48.5714 30.0001 44.0943 30.0001 38.5714C30.0001 33.0486 34.4772 28.5714 40.0001 28.5714ZM40.0001 32.8572C36.8442 32.8572 34.2858 35.4155 34.2858 38.5714C34.2858 41.7274 36.8442 44.2857 40.0001 44.2857C43.156 44.2857 45.7144 41.7274 45.7144 38.5714C45.7144 35.4155 43.156 32.8572 40.0001 32.8572ZM58.5715 11.4286C64.0943 11.4286 68.5715 15.9057 68.5715 21.4286C68.5715 26.9514 64.0943 31.4286 58.5715 31.4286C53.0486 31.4286 48.5715 26.9514 48.5715 21.4286C48.5715 15.9057 53.0486 11.4286 58.5715 11.4286ZM21.4286 11.4286C26.9515 11.4286 31.4286 15.9057 31.4286 21.4286C31.4286 26.9514 26.9515 31.4286 21.4286 31.4286C15.9058 31.4286 11.4286 26.9514 11.4286 21.4286C11.4286 15.9057 15.9058 11.4286 21.4286 11.4286ZM58.5715 15.7143C55.4156 15.7143 52.8572 18.2727 52.8572 21.4286C52.8572 24.5845 55.4156 27.1429 58.5715 27.1429C61.7274 27.1429 64.2858 24.5845 64.2858 21.4286C64.2858 18.2727 61.7274 15.7143 58.5715 15.7143ZM21.4286 15.7143C18.2727 15.7143 15.7144 18.2727 15.7144 21.4286C15.7144 24.5845 18.2727 27.1429 21.4286 27.1429C24.5846 27.1429 27.1429 24.5845 27.1429 21.4286C27.1429 18.2727 24.5846 15.7143 21.4286 15.7143Z" fill="#D1E1EA"/>
</svg>
