<svg width="80" height="80" viewBox="0 0 80 80" fill="none" xmlns="http://www.w3.org/2000/svg">
<g clip-path="url(#clip0_23_117)">
<path fill-rule="evenodd" clip-rule="evenodd" d="M40 25C36.0218 25 32.2064 26.5804 29.3934 29.3934C26.5804 32.2064 25 36.0218 25 40C25 43.9782 26.5804 47.7936 29.3934 50.6066C32.2064 53.4196 36.0218 55 40 55C43.9782 55 47.7936 53.4196 50.6066 50.6066C53.4196 47.7936 55 43.9782 55 40C55 36.0218 53.4196 32.2064 50.6066 29.3934C47.7936 26.5804 43.9782 25 40 25ZM32.5 40C32.5 38.0109 33.2902 36.1032 34.6967 34.6967C36.1032 33.2902 38.0109 32.5 40 32.5C41.9891 32.5 43.8968 33.2902 45.3033 34.6967C46.7098 36.1032 47.5 38.0109 47.5 40C47.5 41.9891 46.7098 43.8968 45.3033 45.3033C43.8968 46.7098 41.9891 47.5 40 47.5C38.0109 47.5 36.1032 46.7098 34.6967 45.3033C33.2902 43.8968 32.5 41.9891 32.5 40Z" fill="#D1E1EA"/>
<path fill-rule="evenodd" clip-rule="evenodd" d="M37.5 0C35.1794 0 32.9538 0.921872 31.3128 2.56282C29.6719 4.20376 28.75 6.42936 28.75 8.75V9.5C27.95 9.8 27.16 10.125 26.39 10.48L25.86 9.95C25.0475 9.13739 24.0828 8.49279 23.0212 8.05301C21.9595 7.61322 20.8216 7.38687 19.6725 7.38687C18.5234 7.38687 17.3855 7.61322 16.3238 8.05301C15.2622 8.49279 14.2975 9.13739 13.485 9.95L9.95 13.485C9.13739 14.2975 8.49279 15.2622 8.05301 16.3238C7.61322 17.3855 7.38687 18.5234 7.38687 19.6725C7.38687 20.8216 7.61322 21.9595 8.05301 23.0212C8.49279 24.0828 9.13739 25.0475 9.95 25.86L10.48 26.39C10.1223 27.1634 9.79541 27.9507 9.5 28.75H8.75C7.60093 28.75 6.46312 28.9763 5.40152 29.4161C4.33992 29.8558 3.37533 30.5003 2.56282 31.3128C0.921872 32.9538 0 35.1794 0 37.5L0 42.5C0 47.33 3.92 51.25 8.75 51.25H9.5C9.8 52.05 10.125 52.84 10.48 53.61L9.95 54.145C8.31039 55.7858 7.38937 58.0104 7.38937 60.33C7.38937 62.6496 8.31039 64.8742 9.95 66.515L13.485 70.055C14.2975 70.8676 15.2622 71.5122 16.3238 71.952C17.3855 72.3918 18.5234 72.6181 19.6725 72.6181C20.8216 72.6181 21.9595 72.3918 23.0212 71.952C24.0828 71.5122 25.0475 70.8676 25.86 70.055L26.39 69.52C27.16 69.875 27.95 70.205 28.75 70.5V71.25C28.75 76.08 32.67 80 37.5 80H42.5C44.8206 80 47.0462 79.0781 48.6872 77.4372C50.3281 75.7962 51.25 73.5706 51.25 71.25V70.5C52.05 70.2 52.84 69.875 53.61 69.52L54.14 70.055C54.9525 70.8676 55.9172 71.5122 56.9788 71.952C58.0405 72.3918 59.1784 72.6181 60.3275 72.6181C61.4766 72.6181 62.6145 72.3918 63.6762 71.952C64.7378 71.5122 65.7025 70.8676 66.515 70.055L70.05 66.52C70.8626 65.7075 71.5072 64.7428 71.947 63.6812C72.3868 62.6195 72.6131 61.4816 72.6131 60.3325C72.6131 59.1834 72.3868 58.0455 71.947 56.9838C71.5072 55.9222 70.8626 54.9575 70.05 54.145L69.52 53.61C69.875 52.84 70.205 52.055 70.5 51.25H71.25C73.5706 51.25 75.7962 50.3281 77.4372 48.6872C79.0781 47.0462 80 44.8206 80 42.5V37.5C80 35.1794 79.0781 32.9538 77.4372 31.3128C75.7962 29.6719 73.5706 28.75 71.25 28.75H70.5C70.2046 27.9507 69.8777 27.1634 69.52 26.39L70.05 25.86C70.8626 25.0475 71.5072 24.0828 71.947 23.0212C72.3868 21.9595 72.6131 20.8216 72.6131 19.6725C72.6131 18.5234 72.3868 17.3855 71.947 16.3238C71.5072 15.2622 70.8626 14.2975 70.05 13.485L66.515 9.95C65.7025 9.13739 64.7378 8.49279 63.6762 8.05301C62.6145 7.61322 61.4766 7.38687 60.3275 7.38687C59.1784 7.38687 58.0405 7.61322 56.9788 8.05301C55.9172 8.49279 54.9525 9.13739 54.14 9.95L53.61 10.48C52.8366 10.1223 52.0493 9.79541 51.25 9.5V8.75C51.25 7.60093 51.0237 6.46312 50.5839 5.40152C50.1442 4.33992 49.4997 3.37533 48.6872 2.56282C47.8747 1.7503 46.9101 1.10578 45.8485 0.666054C44.7869 0.226325 43.6491 0 42.5 0L37.5 0ZM36.25 8.75C36.25 8.41848 36.3817 8.10054 36.6161 7.86612C36.8505 7.6317 37.1685 7.5 37.5 7.5H42.5C42.8315 7.5 43.1495 7.6317 43.3839 7.86612C43.6183 8.10054 43.75 8.41848 43.75 8.75V12.24C43.75 13.935 44.885 15.42 46.525 15.86C48.625 16.425 50.61 17.26 52.455 18.32C53.1702 18.7318 54.0012 18.8963 54.8193 18.7878C55.6374 18.6793 56.3969 18.304 56.98 17.72L59.445 15.25C59.5611 15.1336 59.6991 15.0412 59.8509 14.9782C60.0028 14.9152 60.1656 14.8828 60.33 14.8828C60.4944 14.8828 60.6572 14.9152 60.8091 14.9782C60.9609 15.0412 61.0989 15.1336 61.215 15.25L64.75 18.79C64.9836 19.0243 65.1147 19.3417 65.1147 19.6725C65.1147 20.0033 64.9836 20.3207 64.75 20.555L62.28 23.025C61.6972 23.6078 61.3226 24.3663 61.2141 25.1833C61.1057 26.0004 61.2694 26.8304 61.68 27.545C62.745 29.39 63.58 31.38 64.14 33.475C64.3544 34.2712 64.8252 34.9745 65.4796 35.4762C66.134 35.9778 66.9355 36.2498 67.76 36.25H71.25C71.5815 36.25 71.8995 36.3817 72.1339 36.6161C72.3683 36.8505 72.5 37.1685 72.5 37.5V42.5C72.5 42.8315 72.3683 43.1495 72.1339 43.3839C71.8995 43.6183 71.5815 43.75 71.25 43.75H67.76C66.9355 43.7502 66.134 44.0222 65.4796 44.5238C64.8252 45.0255 64.3544 45.7288 64.14 46.525C63.575 48.625 62.74 50.61 61.68 52.455C61.2682 53.1702 61.1037 54.0012 61.2122 54.8193C61.3207 55.6374 61.696 56.3969 62.28 56.98L64.75 59.445C64.8664 59.5611 64.9588 59.6991 65.0218 59.8509C65.0848 60.0028 65.1172 60.1656 65.1172 60.33C65.1172 60.4944 65.0848 60.6572 65.0218 60.8091C64.9588 60.9609 64.8664 61.0989 64.75 61.215L61.215 64.75C61.0989 64.8664 60.9609 64.9588 60.8091 65.0218C60.6572 65.0848 60.4944 65.1172 60.33 65.1172C60.1656 65.1172 60.0028 65.0848 59.8509 65.0218C59.6991 64.9588 59.5611 64.8664 59.445 64.75L56.975 62.28C56.3922 61.6972 55.6337 61.3226 54.8167 61.2141C53.9996 61.1057 53.1696 61.2694 52.455 61.68C50.5931 62.7532 48.5998 63.5801 46.525 64.14C45.7288 64.3544 45.0255 64.8252 44.5238 65.4796C44.0222 66.134 43.7502 66.9355 43.75 67.76V71.25C43.75 71.5815 43.6183 71.8995 43.3839 72.1339C43.1495 72.3683 42.8315 72.5 42.5 72.5H37.5C37.1685 72.5 36.8505 72.3683 36.6161 72.1339C36.3817 71.8995 36.25 71.5815 36.25 71.25V67.76C36.2498 66.9355 35.9778 66.134 35.4762 65.4796C34.9745 64.8252 34.2712 64.3544 33.475 64.14C31.4004 63.5817 29.4071 62.7564 27.545 61.685C26.8304 61.2744 26.0004 61.1107 25.1833 61.2191C24.3663 61.3276 23.6078 61.7022 23.025 62.285L20.555 64.75C20.4389 64.8664 20.3009 64.9588 20.1491 65.0218C19.9972 65.0848 19.8344 65.1172 19.67 65.1172C19.5056 65.1172 19.3428 65.0848 19.1909 65.0218C19.0391 64.9588 18.9011 64.8664 18.785 64.75L15.25 61.215C15.1336 61.0989 15.0412 60.9609 14.9782 60.8091C14.9152 60.6572 14.8828 60.4944 14.8828 60.33C14.8828 60.1656 14.9152 60.0028 14.9782 59.8509C15.0412 59.6991 15.1336 59.5611 15.25 59.445L17.72 56.98C18.304 56.3969 18.6793 55.6374 18.7878 54.8193C18.8963 54.0012 18.7318 53.1702 18.32 52.455C17.2468 50.5931 16.4199 48.5998 15.86 46.525C15.6456 45.7288 15.1748 45.0255 14.5204 44.5238C13.866 44.0222 13.0645 43.7502 12.24 43.75H8.75C8.41848 43.75 8.10054 43.6183 7.86612 43.3839C7.6317 43.1495 7.5 42.8315 7.5 42.5V37.5C7.5 37.1685 7.6317 36.8505 7.86612 36.6161C8.10054 36.3817 8.41848 36.25 8.75 36.25H12.24C13.0645 36.2498 13.866 35.9778 14.5204 35.4762C15.1748 34.9745 15.6456 34.2712 15.86 33.475C16.425 31.375 17.26 29.39 18.315 27.545C18.7256 26.8304 18.8893 26.0004 18.7809 25.1833C18.6724 24.3663 18.2978 23.6078 17.715 23.025L15.25 20.55C15.0164 20.3157 14.8853 19.9983 14.8853 19.6675C14.8853 19.3367 15.0164 19.0193 15.25 18.785L18.785 15.245C18.9011 15.1286 19.0391 15.0362 19.1909 14.9732C19.3428 14.9102 19.5056 14.8778 19.67 14.8778C19.8344 14.8778 19.9972 14.9102 20.1491 14.9732C20.3009 15.0362 20.4389 15.1286 20.555 15.245L23.02 17.715C24.22 18.915 26.075 19.16 27.545 18.315C29.4069 17.2418 31.4002 16.4149 33.475 15.855C34.2712 15.6406 34.9745 15.1698 35.4762 14.5154C35.9778 13.861 36.2498 13.0595 36.25 12.235V8.75Z" fill="#D1E1EA"/>
</g>
<defs>
<clipPath id="clip0_23_117">
<rect width="80" height="80" fill="white"/>
</clipPath>
</defs>
</svg>
