<svg width="80" height="80" viewBox="0 0 80 80" fill="none" xmlns="http://www.w3.org/2000/svg">
<path d="M27.5 27.5C28.163 27.5 28.7989 27.7634 29.2678 28.2322C29.7366 28.7011 30 29.337 30 30V60C30 60.663 29.7366 61.2989 29.2678 61.7678C28.7989 62.2366 28.163 62.5 27.5 62.5C26.837 62.5 26.2011 62.2366 25.7322 61.7678C25.2634 61.2989 25 60.663 25 60V30C25 29.337 25.2634 28.7011 25.7322 28.2322C26.2011 27.7634 26.837 27.5 27.5 27.5ZM40 27.5C40.663 27.5 41.2989 27.7634 41.7678 28.2322C42.2366 28.7011 42.5 29.337 42.5 30V60C42.5 60.663 42.2366 61.2989 41.7678 61.7678C41.2989 62.2366 40.663 62.5 40 62.5C39.337 62.5 38.7011 62.2366 38.2322 61.7678C37.7634 61.2989 37.5 60.663 37.5 60V30C37.5 29.337 37.7634 28.7011 38.2322 28.2322C38.7011 27.7634 39.337 27.5 40 27.5ZM55 30C55 29.337 54.7366 28.7011 54.2678 28.2322C53.7989 27.7634 53.163 27.5 52.5 27.5C51.837 27.5 51.2011 27.7634 50.7322 28.2322C50.2634 28.7011 50 29.337 50 30V60C50 60.663 50.2634 61.2989 50.7322 61.7678C51.2011 62.2366 51.837 62.5 52.5 62.5C53.163 62.5 53.7989 62.2366 54.2678 61.7678C54.7366 61.2989 55 60.663 55 60V30Z" fill="#EEF0F0"/>
<path d="M72.5 15C72.5 16.3261 71.9732 17.5979 71.0355 18.5355C70.0979 19.4732 68.8261 20 67.5 20H65V65C65 67.6522 63.9464 70.1957 62.0711 72.0711C60.1957 73.9464 57.6522 75 55 75H25C22.3478 75 19.8043 73.9464 17.9289 72.0711C16.0536 70.1957 15 67.6522 15 65V20H12.5C11.1739 20 9.90215 19.4732 8.96447 18.5355C8.02678 17.5979 7.5 16.3261 7.5 15V10C7.5 8.67392 8.02678 7.40215 8.96447 6.46447C9.90215 5.52678 11.1739 5 12.5 5H30C30 3.67392 30.5268 2.40215 31.4645 1.46447C32.4021 0.526784 33.6739 0 35 0L45 0C46.3261 0 47.5979 0.526784 48.5355 1.46447C49.4732 2.40215 50 3.67392 50 5H67.5C68.8261 5 70.0979 5.52678 71.0355 6.46447C71.9732 7.40215 72.5 8.67392 72.5 10V15ZM20.59 20L20 20.295V65C20 66.3261 20.5268 67.5979 21.4645 68.5355C22.4021 69.4732 23.6739 70 25 70H55C56.3261 70 57.5979 69.4732 58.5355 68.5355C59.4732 67.5979 60 66.3261 60 65V20.295L59.41 20H20.59ZM12.5 15H67.5V10H12.5V15Z" fill="#EEF0F0"/>
</svg>
