<svg width="80" height="80" viewBox="0 0 80 80" fill="none" xmlns="http://www.w3.org/2000/svg">
<path d="M40 40C45.5228 40 50 35.5228 50 30C50 24.4772 45.5228 20 40 20C34.4772 20 30 24.4772 30 30C30 35.5228 34.4772 40 40 40Z" stroke="#D1E1EA" stroke-width="7"/>
<path d="M40.0003 73.3333C58.4098 73.3333 73.3336 58.4095 73.3336 40C73.3336 21.5905 58.4098 6.66669 40.0003 6.66669C21.5908 6.66669 6.66699 21.5905 6.66699 40C6.66699 58.4095 21.5908 73.3333 40.0003 73.3333Z" stroke="#D1E1EA" stroke-width="7"/>
<path d="M59.897 66.6667C59.3667 57.0283 56.4157 50 39.9997 50C23.584 50 20.633 57.0283 20.1025 66.6667" stroke="#D1E1EA" stroke-width="7" stroke-linecap="round"/>
</svg>
